<svg width="513" height="512" viewBox="0 0 513 512" fill="none" xmlns="http://www.w3.org/2000/svg"><path d="M495.094 256C495.094 397.385 384.264 512 247.547 512C110.831 512 0 397.385 0 256C0 114.615 110.831 0 247.547 0C384.264 0 495.094 114.615 495.094 256Z" fill="#7DBE3B"/><path d="M495.112 269.025C495.112 384.836 404.329 478.718 292.343 478.718C180.357 478.718 89.5737 384.836 89.5737 269.025C89.5737 153.215 180.357 59.3325 292.343 59.3325C404.329 59.3325 495.112 153.215 495.112 269.025Z" fill="#448C0D"/><path fill-rule="evenodd" clip-rule="evenodd" d="M292.336 496.192C413.654 496.192 512.002 394.486 512.002 269.025C512.002 143.564 413.654 41.8574 292.336 41.8574C171.017 41.8574 72.6694 143.564 72.6694 269.025C72.6694 394.486 171.017 496.192 292.336 496.192ZM489.901 316.43C469.124 409.407 388.557 478.717 292.336 478.717C180.35 478.717 89.5668 384.835 89.5668 269.025C89.5668 153.215 180.35 59.3318 292.336 59.3318C310.411 59.3318 327.933 61.7776 344.611 66.3666C340.938 66.1234 337.233 66 333.5 66C238.783 66 162 145.469 162 243.5C162 341.531 238.783 421 333.5 421C403.102 421 463.02 378.087 489.901 316.43Z" fill="white"/></svg>
