<svg width="512" height="512" viewBox="0 0 512 512" fill="none" xmlns="http://www.w3.org/2000/svg">
<rect x="128.389" y="128.023" width="176.798" height="43.1929" rx="21.5964" fill="#5988CE"/>
<rect x="28.6426" y="128.023" width="92.0593" height="43.1929" rx="21.5964" fill="#5988CE"/>
<rect x="89.7715" y="198.852" width="183.752" height="43.1928" rx="21.5964" fill="#5988CE"/>
<rect y="198.852" width="85.7451" height="43.1928" rx="21.5964" fill="#5988CE"/>
<rect x="3.93457" y="269.684" width="249.64" height="43.1928" rx="21.5964" fill="#5988CE"/>
<rect x="89.7715" y="411.34" width="323.672" height="43.1929" rx="21.5964" fill="#5988CE"/>
<rect x="89.7715" y="57.1953" width="323.672" height="43.1929" rx="21.5964" fill="#5988CE"/>
<rect x="128.389" y="340.512" width="207.362" height="43.1929" rx="21.5964" fill="#5988CE"/>
<rect x="38.4346" y="340.512" width="82.2677" height="43.1929" rx="21.5964" fill="#5988CE"/>
<path d="M497.805 150.547C517.21 131.142 517.403 99.0092 493.8 85.0084C474.535 73.5811 453.375 65.4308 431.172 61.0145C392.617 53.3453 352.653 57.2814 316.334 72.3251C280.015 87.3688 248.973 112.844 227.133 145.53C205.293 178.216 193.636 216.645 193.636 255.956C193.636 295.267 205.293 333.695 227.133 366.381C248.973 399.067 280.015 424.543 316.334 439.586C352.653 454.63 392.617 458.566 431.173 450.897C453.375 446.481 474.535 438.33 493.8 426.903C517.403 412.902 517.21 380.769 497.805 361.364C478.4 341.959 446.708 343.59 420.375 351.316C417.552 352.144 414.686 352.849 411.784 353.426C392.506 357.261 372.524 355.293 354.365 347.771C336.206 340.249 320.685 327.511 309.765 311.168C298.845 294.825 293.016 275.611 293.016 255.956C293.016 236.3 298.845 217.086 309.765 200.743C320.685 184.4 336.206 171.662 354.365 164.14C372.524 156.619 392.506 154.651 411.784 158.485C414.686 159.062 417.552 159.767 420.375 160.595C446.708 168.321 478.4 169.952 497.805 150.547Z" fill="#5988CE"/>
<circle cx="392.396" cy="255.955" r="48.775" fill="#5988CE"/>
</svg>
